<?xml version="1.0" encoding="UTF-8" standalone="no"?>
<!-- Created with Inkscape (http://www.inkscape.org/) -->

<svg
   width="618.44794"
   height="371.69315"
   id="svg2"
   version="1.1"
   inkscape:version="1.3.2 (091e20ef0f, 2023-11-25)"
   sodipodi:docname="Coordinate_system._R_Lsvg"
   xmlns:inkscape="http://www.inkscape.org/namespaces/inkscape"
   xmlns:sodipodi="http://sodipodi.sourceforge.net/DTD/sodipodi-0.dtd"
   xmlns="http://www.w3.org/2000/svg"
   xmlns:svg="http://www.w3.org/2000/svg"
   xmlns:rdf="http://www.w3.org/1999/02/22-rdf-syntax-ns#"
   xmlns:cc="http://creativecommons.org/ns#"
   xmlns:dc="http://purl.org/dc/elements/1.1/">
  <defs
     id="defs4">
    <rect
       x="325.43823"
       y="-103.04382"
       width="280.59692"
       height="56.957909"
       id="rect2" />
    <rect
       x="348.14592"
       y="-89.601668"
       width="270.97325"
       height="64.229354"
       id="rect1" />
    <rect
       x="325.43823"
       y="-103.04382"
       width="280.59692"
       height="56.957909"
       id="rect2-3" />
  </defs>
  <sodipodi:namedview
     id="base"
     pagecolor="#ffffff"
     bordercolor="#666666"
     borderopacity="1.0"
     inkscape:pageopacity="0.0"
     inkscape:pageshadow="2"
     inkscape:zoom="1.4"
     inkscape:cx="322.85714"
     inkscape:cy="160.35714"
     inkscape:document-units="px"
     inkscape:current-layer="layer1"
     showgrid="true"
     inkscape:window-width="1920"
     inkscape:window-height="1021"
     inkscape:window-x="0"
     inkscape:window-y="0"
     inkscape:window-maximized="1"
     fit-margin-top="0.3"
     fit-margin-right="0.3"
     fit-margin-bottom="0.3"
     fit-margin-left="0.3"
     inkscape:showpageshadow="2"
     inkscape:pagecheckerboard="0"
     inkscape:deskcolor="#d1d1d1">
    <inkscape:grid
       id="grid2"
       units="px"
       originx="0"
       originy="0"
       spacingx="1"
       spacingy="1"
       empcolor="#0099e5"
       empopacity="0.30196078"
       color="#0099e5"
       opacity="0.14901961"
       empspacing="5"
       dotted="false"
       gridanglex="30"
       gridanglez="30"
       visible="true" />
  </sodipodi:namedview>
  <metadata
     id="metadata7">
    <rdf:RDF>
      <cc:Work
         rdf:about="">
        <dc:format>image/svg+xml</dc:format>
        <dc:type
           rdf:resource="http://purl.org/dc/dcmitype/StillImage" />
        <cc:license
           rdf:resource="http://creativecommons.org/publicdomain/zero/1.0/" />
      </cc:Work>
      <cc:License
         rdf:about="http://creativecommons.org/publicdomain/zero/1.0/">
        <cc:permits
           rdf:resource="http://creativecommons.org/ns#Reproduction" />
        <cc:permits
           rdf:resource="http://creativecommons.org/ns#Distribution" />
        <cc:permits
           rdf:resource="http://creativecommons.org/ns#DerivativeWorks" />
      </cc:License>
    </rdf:RDF>
  </metadata>
  <g
     inkscape:label="Ebene 1"
     inkscape:groupmode="layer"
     id="layer1"
     transform="translate(-58.538207,-270.89053)">
    <path
       inkscape:connector-curvature="0"
       id="path3032"
       d="m 257.93487,562.21054 c -1.58817,-2.9675 -7.32852,-7.9088 -12.80133,-11.0194 -6.09001,-3.4614 -23.21701,-7.8646 -30.59049,-7.8646 -1.81569,0 -3.88876,-0.7079 -4.60681,-1.5731 -4.45903,-5.3728 -21.18754,-8.4184 -27.71089,-5.0451 -2.01528,1.0422 -5.63982,1.6182 -10.18241,1.6182 -5.14277,0 -8.06406,0.5417 -10.78486,2 -10.4101,5.5794 -21.81614,-0.8978 -19.86793,-11.2827 0.70345,-3.7497 7.06431,-10.4161 12.60675,-13.2122 1.925,-0.9712 5.3,-2.7015 7.5,-3.8451 6.15154,-3.1979 18.0335,-6.316 28,-7.348 6.60144,-0.6835 7.82196,-1.7744 6.99002,-6.24787 -0.82483,-4.4353 -4.2244,-12.66155 -6.75063,-16.33519 -1.04806,-1.52408 -2.73813,-5.13987 -3.75572,-8.03509 -1.01759,-2.89522 -4.31071,-10.19824 -7.31805,-16.22895 -3.00734,-6.0307 -6.38672,-13.96673 -7.50973,-17.63562 -1.12301,-3.66889 -3.1925,-8.94143 -4.59887,-11.71676 -5.05966,-9.98476 -2.20287,-19.99028 5.73347,-20.08073 3.88254,-0.0443 8.17933,3.43357 10.29393,8.33187 0.98211,2.27498 2.5139,5.03633 3.40399,6.13633 2.07924,2.56959 9.01159,14.09072 9.01159,14.97668 0,1.10697 8.5284,11.763 12.31358,15.38553 5.39059,5.15895 6.11894,4.16905 5.79545,-7.87658 -0.15339,-5.71178 -0.65874,-12.71894 -1.123,-15.57146 -0.48688,-2.9915 -0.42287,-10.41885 0.15124,-17.55029 0.54743,-6.80013 1.17193,-16.63606 1.38776,-21.8576 0.66602,-16.11271 3.11271,-24.33574 7.71863,-25.94138 11.55848,-4.0293 12.6073,0.39625 14.1565,59.73435 0.32533,12.46075 1.04581,23.16554 1.633,24.26272 1.34318,2.50974 4.28627,1.15478 6.40933,-2.95076 1.48561,-2.87286 6.45841,-5.61961 9.72801,-5.37332 0.98821,0.0744 3.30909,1.28887 5.15751,2.69873 2.08472,1.59009 4.65384,2.56397 6.76638,2.56493 3.82106,0.002 9.83428,2.7179 11.06594,4.99845 2.15266,3.98589 6.83967,15.20134 6.83967,16.3665 0,0.72403 4.30034,9.77545 9.55634,20.11427 5.2561,10.33887 10.2519,21.54764 11.1018,24.90854 0.85,3.3609 2.5579,7.4607 3.7954,9.1107 3.867,5.1559 5.5188,9.1953 5.698,13.9339 0.095,2.5161 -0.08,4.8276 -0.3886,5.1365 -0.7613,0.7613 -8.1534,-7.0274 -9.8498,-10.3782 -0.7497,-1.4807 -2.8098,-3.9403 -4.5781,-5.4656 -4.1539,-3.5832 -4.769,-5.7545 -3.2782,-11.5714 1.1495,-4.4851 1.0676,-4.9979 -1.4313,-8.9564 -1.4578,-2.3093 -3.095,-4.1988 -3.6381,-4.1988 -1.2914,0 -1.2811,-3.70047 0.012,-4.49997 1.6826,-1.0399 1.1135,-2.5 -0.9743,-2.5 -1.1702,0 -2.5892,1.1891 -3.484,2.9193 -0.99172,1.9178 -3.40201,3.78567 -7.02566,5.44467 -3.03381,1.3889 -5.51602,2.9699 -5.51602,3.5133 0,0.5433 -0.91849,1.2794 -2.04109,1.6357 -1.21161,0.3846 -2.27838,1.8343 -2.625,3.5674 -0.32115,1.6058 -0.81881,2.9196 -1.10592,2.9196 -0.2871,0 -2.36835,-1.4888 -4.625,-3.3084 -7.79431,-6.2848 -11.43675,-7.941 -19.11796,-8.6931 -10.41572,-1.0198 -26.73547,2.2519 -30.62269,6.1391 -1.69694,1.697 -3.99166,2.1697 -13.91086,2.8658 -6.53329,0.4584 -12.2385,1.0559 -12.67825,1.3277 -0.43976,0.2718 -3.94363,0.7548 -7.78639,1.0734 -5.51832,0.4576 -8.72554,1.463 -15.25914,4.7838 -4.54977,2.3125 -9.11436,4.9891 -10.14355,5.9479 -1.02919,0.9588 -2.20576,1.4329 -2.61461,1.0535 -0.40884,-0.3793 -0.53588,-0.027 -0.28231,0.7827 0.25358,0.8098 1.41308,1.7098 2.57668,2 1.1636,0.2902 3.76112,1.9901 5.77225,3.7776 4.33587,3.8537 9.22366,4.3036 14.14632,1.302 2.33912,-1.4263 3.26663,-2.7961 3.5,-5.1693 0.17464,-1.7758 0.80193,-3.3873 1.39399,-3.5812 1.21283,-0.3972 5.9026,3.6357 6.57551,5.6544 0.30171,0.9051 2.77305,1.3863 7.89362,1.5369 5.46923,0.1609 9.11889,0.9268 13.70461,2.876 4.01876,1.7082 9.01705,2.8795 14,3.2809 4.26239,0.3432 8.29258,1.0512 8.95599,1.5733 0.6634,0.522 1.70426,0.6413 2.31301,0.2651 0.60875,-0.3762 1.97846,0.1048 3.0438,1.0689 1.76516,1.5974 2.09223,1.6136 3.68699,0.1817 2.08791,-1.8746 7.16329,-1.2145 8.90968,1.1587 1.04916,1.4258 1.34258,1.4105 3.07874,-0.1607 2.01771,-1.826 4.80214,-2.2891 5.6374,-0.9377 0.52535,0.8501 7.97334,0.6238 13.37418,-0.4062 4.2497,-0.8105 4.31312,1.1582 0.25,7.7616 -3.44452,5.5981 -3.51002,5.8456 -1.54692,5.8456 1.71777,0 5.01666,6.4309 4.07799,7.9497 -1.64067,2.6547 -6.11461,-1.1093 -7.55381,-6.3551 -0.59746,-2.1777 -3.55069,-4.3545 -4.55079,-3.3544 -0.9146,0.9146 4.15012,9.3833 6.04702,10.1112 0.83958,0.3222 1.52651,1.2749 1.52651,2.1172 0,2.5592 -7.64343,2.0661 -9.06203,-0.5845 z m -102.11783,-28.6487 c 0.43335,-3.038 -2.35387,-3.9673 -4.92365,-1.6417 -1.93845,1.7543 -1.94881,1.8949 -0.2321,3.1502 2.49641,1.8254 4.77528,1.1587 5.15575,-1.5085 z m 112.97986,-32.4353 c 1.65263,-1.6527 1.47875,-6.43417 -0.42911,-11.79997 -0.88,-2.47504 -2.20383,-10.72994 -2.94185,-18.34427 -1.59478,-16.45366 -3.51352,-21.50091 -9.22324,-24.26165 -2.03819,-0.9855 -4.42701,-1.91439 -5.3085,-2.06421 -3.73322,-0.63451 -9.98185,10.65304 -8.94477,16.15788 0.67924,3.60543 4.04747,4.85553 4.04747,1.5022 0,-1.23633 0.51353,-1.98548 1.20339,-1.75553 1.21756,0.40586 4.31263,10.50712 5.74983,18.76554 1.54248,8.86334 7.20888,21.60991 9.92942,22.33621 3.04876,0.8139 4.71854,0.6626 5.91736,-0.5362 z m -6.55047,-7.04997 c 0.22891,-0.6875 1.26459,-1.4144 2.3015,-1.6154 1.6311,-0.3161 1.70455,-0.1475 0.54469,1.25 -1.5862,1.9113 -3.44015,2.1493 -2.84619,0.3654 z m -4.06595,-16.50004 c 0.17403,-1.5125 0.76642,-2.75 1.31642,-2.75 0.55,0 1.14239,1.2375 1.31642,2.75 0.23086,2.00641 -0.12509,2.75 -1.31642,2.75 -1.19133,0 -1.54728,-0.74359 -1.31642,-2.75 z m -44.69696,19.03984 c 2.84892,-4.5109 4.42497,-4.8419 5.69583,-1.1963 0.86908,2.4931 1.47225,2.9545 3.19446,2.4441 10.12545,-3.0011 13.56273,-3.6019 17.38617,-3.0389 6.37641,0.9389 8.23692,0.02 8.23692,-4.0661 0,-3.5796 -3.24348,-8.01823 -5.04542,-6.90457 -1.68872,1.04368 -4.95458,-0.58717 -4.95458,-2.47414 0,-1.70652 -2.16722,-2.98008 -7.75,-4.55427 -1.39052,-0.39209 -2.25,-1.41354 -2.25,-2.67404 0,-1.35708 0.47818,-1.8561 1.42899,-1.49124 3.21765,1.23473 8.1576,1.65088 9.45284,0.79632 2.4806,-1.63662 0.41193,-8.16093 -3.88305,-12.24664 -3.30437,-3.14337 -3.628,-3.82627 -2.3968,-5.05747 1.17658,-1.17658 1.2508,-3.06238 0.42804,-10.875 -0.54745,-5.19837 -1.01195,-14.40159 -1.03221,-20.45159 -0.0203,-6.05 -0.65372,-15.725 -1.40766,-21.5 -0.75395,-5.775 -1.44467,-14.74705 -1.53494,-19.9379 -0.11832,-6.80362 -0.63249,-10.23077 -1.84214,-12.27855 -4.07204,-6.89342 -7.97282,0.16532 -8.40887,15.21645 l -0.3042,10.5 3,0.32695 c 3.97741,0.43346 5.14699,1.68855 3.46363,3.71687 -0.89165,1.07438 -2.25811,1.44728 -4.01547,1.09581 -2.5013,-0.50026 -2.77074,-0.17978 -4.41528,5.25178 -2.39535,7.9113 -1.90855,22.62954 0.81432,24.62053 1.01596,0.74288 2.47846,1.10846 3.25,0.81239 0.9302,-0.35695 1.4028,0.17153 1.4028,1.56868 0,1.58557 -0.62399,2.10699 -2.52144,2.10699 -3.72408,0 -4.97407,3.46226 -3.58628,9.93334 0.60925,2.84081 1.10772,6.98741 1.10772,9.21467 0,3.23237 0.62076,4.62945 3.07612,6.9231 3.53582,3.30295 3.12348,4.92889 -1.24997,4.92889 -4.20145,0 -17.15888,-12.62721 -24.62764,-24 -3.07017,-4.675 -6.26403,-9.31343 -7.09745,-10.30762 -0.83343,-0.99419 -1.66889,-2.95437 -1.85659,-4.35596 -0.1877,-1.40158 -1.15498,-3.73815 -2.14952,-5.19238 -0.99453,-1.45422 -2.5722,-3.90302 -3.50593,-5.44178 -1.51871,-2.5028 -7.00026,-6.68882 -8.77163,-6.69852 -1.84954,-0.0101 -2.5992,8.4314 -1.18,13.28735 0.28791,0.98509 1.80705,2.0478 3.37587,2.36156 2.61972,0.52395 2.76948,0.78571 1.83584,3.20892 -2.20965,5.73506 2.29266,21.13843 6.17864,21.13843 1.19718,0 2.1593,-0.89705 2.52504,-2.35426 0.39517,-1.5745 1.72634,-2.70275 4.01905,-3.4064 4.36281,-1.33899 4.32303,-0.33058 -0.1751,4.43883 -3.26356,3.46039 -3.56233,4.24663 -3.16903,8.33974 0.26449,2.75264 2.62804,9.03095 6.04647,16.06132 3.08673,6.34818 6.59337,14.21481 7.79253,17.48151 2.80154,7.63157 3.71127,8.54757 5.65063,5.6893 1.84796,-2.7237 3.28267,-2.9058 3.28267,-0.4167 0,4.33147 3.59814,4.02997 6.48662,-0.5435 z m -6.75034,-5.1903 c -0.63636,-2.4334 0.24105,-7.09954 1.33498,-7.09954 1.10145,0 2.31643,6.56374 1.46884,7.93514 -1.01211,1.6376 -2.25383,1.2676 -2.80382,-0.8356 z m -25.0968,-57.79339 c -1.12618,-1.12619 -0.68589,-2.30615 0.86052,-2.30615 0.825,0 1.5,0.42344 1.5,0.94098 0,1.26098 -1.56159,2.1641 -2.36052,1.36517 z m 98.17694,59.43529 c 0.2841,-2.4614 0.003,-2.7414 -2.75,-2.7414 -3.2651,0 -3.7127,0.9239 -1.99895,4.126 1.49455,2.7926 4.36336,1.9562 4.74895,-1.3846 z m 0.86625,-5.82411 c 1.58075,-1.58075 0.46813,-14.63478 -1.65498,-19.41733 -0.97664,-2.2 -2.33668,-5.8 -3.02232,-8 -1.32162,-4.24065 -5.54298,-9.5 -7.62507,-9.5 -2.21831,0 -2.4816,3.64104 -0.6604,9.1325 1.52358,4.594 2.26856,5.52538 5.16964,6.46306 3.24495,1.04883 3.30504,1.15547 1.4087,2.5 -4.17925,2.96314 -5.46871,9.24838 -3.22048,15.69766 0.84413,2.42148 1.76541,3.17783 4.25,3.48922 1.74473,0.2186 3.41974,0.4695 3.72224,0.5575 0.3025,0.088 1.0372,-0.3271 1.63267,-0.92261 z m 182.31737,75.55128 c 0,-0.8423 0.6869,-1.795 1.5265,-2.1172 1.8969,-0.7279 6.9616,-9.1966 6.047,-10.1112 -1.0001,-1.0001 -3.9533,1.1767 -4.5508,3.3544 -1.4392,5.2458 -5.9131,9.0098 -7.5538,6.3551 -0.9387,-1.5188 2.3602,-7.9497 4.078,-7.9497 1.9631,0 1.8976,-0.2475 -1.5469,-5.8456 -4.0632,-6.6034 -3.9997,-8.5721 0.25,-7.7616 5.4008,1.03 12.8488,1.2563 13.3741,0.4062 0.8353,-1.3514 3.6197,-0.8883 5.6374,0.9377 1.7362,1.5712 2.0296,1.5865 3.0788,0.1607 1.7464,-2.3732 6.8218,-3.0333 8.9097,-1.1587 1.5947,1.4319 1.9218,1.4157 3.687,-0.1817 1.0653,-0.9641 2.435,-1.4451 3.0438,-1.0689 0.6087,0.3762 1.6496,0.2569 2.313,-0.2651 0.6634,-0.5221 4.6936,-1.2301 8.956,-1.5733 4.9829,-0.4014 9.9812,-1.5727 14,-3.2809 4.5857,-1.9492 8.2353,-2.7151 13.7046,-2.876 5.1205,-0.1506 7.5919,-0.6318 7.8936,-1.5369 0.6729,-2.0187 5.3627,-6.0516 6.5755,-5.6544 0.5921,0.1939 1.2193,1.8054 1.394,3.5812 0.2334,2.3731 1.1609,3.743 3.5,5.1693 4.9226,3.0015 9.8104,2.5517 14.1463,-1.302 2.0111,-1.7875 4.6087,-3.4874 5.7723,-3.7776 1.1636,-0.2902 2.3231,-1.1902 2.5766,-2 0.2536,-0.8098 0.1266,-1.162 -0.2823,-0.7827 -0.4088,0.3794 -1.5854,-0.095 -2.6146,-1.0535 -1.0292,-0.9588 -5.5938,-3.6354 -10.1435,-5.9479 -6.5336,-3.3208 -9.7409,-4.3262 -15.2592,-4.7838 -3.8427,-0.3186 -7.3466,-0.8016 -7.7864,-1.0734 -0.4397,-0.2718 -6.1449,-0.8693 -12.6782,-1.3277 -9.9192,-0.6961 -12.2139,-1.1688 -13.9109,-2.8658 -3.8872,-3.8872 -20.2069,-7.1589 -30.6227,-6.1391 -7.6812,0.7521 -11.3236,2.4083 -19.1179,8.6931 -2.2567,1.8196 -4.3379,3.3084 -4.625,3.3084 -0.2871,0 -0.7848,-1.3139 -1.1059,-2.9196 -0.3467,-1.7331 -1.4134,-3.1829 -2.625,-3.5674 -1.1226,-0.3563 -2.0411,-1.0924 -2.0411,-1.6358 0,-0.5433 -2.4822,-2.1243 -5.5161,-3.5132 -3.6236,-1.659 -6.0339,-3.52687 -7.0256,-5.44467 -0.8948,-1.7303 -2.3139,-2.9193 -3.484,-2.9193 -2.0879,0 -2.6569,1.4601 -0.9743,2.5 1.2936,0.7995 1.3039,4.49997 0.013,4.49997 -0.5431,0 -2.1803,1.8894 -3.6381,4.1988 -2.4989,3.9585 -2.5808,4.4713 -1.4313,8.9564 1.4908,5.8169 0.8756,7.9882 -3.2782,11.5714 -1.7683,1.5253 -3.8284,3.9849 -4.5781,5.4656 -1.6964,3.3508 -9.0885,11.1394 -9.8498,10.3782 -0.3089,-0.3089 -0.4838,-2.6204 -0.3886,-5.1365 0.1792,-4.7386 1.831,-8.7781 5.6979,-13.9339 1.2375,-1.65 2.9455,-5.7499 3.7954,-9.1107 0.85,-3.3609 5.8458,-14.56977 11.1018,-24.90854 5.2561,-10.33882 9.5565,-19.39024 9.5565,-20.11427 0,-1.16516 4.687,-12.38061 6.8396,-16.3665 1.2317,-2.28055 7.2449,-4.9967 11.066,-4.99845 2.1125,-9.6e-4 4.6816,-0.97484 6.7664,-2.56493 1.8484,-1.40986 4.1693,-2.62429 5.1575,-2.69873 3.2696,-0.24629 8.2424,2.50046 9.728,5.37332 2.123,4.10554 5.0661,5.4605 6.4093,2.95076 0.5872,-1.09718 1.3077,-11.80197 1.633,-24.26272 1.5492,-59.3381 2.598,-63.76365 14.1565,-59.73435 4.6059,1.60564 7.0526,9.82867 7.7186,25.94138 0.2159,5.22154 0.8404,15.05747 1.3878,21.8576 0.5741,7.13144 0.6381,14.55879 0.1512,17.55029 -0.4642,2.85252 -0.9696,9.85968 -1.123,15.57146 -0.3235,12.04563 0.4049,13.03553 5.7955,7.87658 3.7852,-3.62253 12.3136,-14.27856 12.3136,-15.38553 0,-0.88596 6.9323,-12.40709 9.0116,-14.97668 0.89,-1.1 2.4218,-3.86135 3.4039,-6.13633 2.1146,-4.8983 6.4114,-8.37612 10.294,-8.33187 7.9363,0.0905 10.7931,10.09597 5.7334,20.08073 -1.4063,2.77533 -3.4758,8.04787 -4.5988,11.71676 -1.123,3.66889 -4.5024,11.60492 -7.5098,17.63562 -3.0073,6.03071 -6.3004,13.33373 -7.318,16.22895 -1.0176,2.89522 -2.7077,6.51101 -3.7557,8.03509 -2.5263,3.67364 -5.9258,11.89989 -6.7507,16.33519 -0.8319,4.47347 0.3886,5.56437 6.9901,6.24787 9.9665,1.032 21.8484,4.1501 28,7.348 2.2,1.1436 5.575,2.8739 7.5,3.8451 5.5424,2.7961 11.9033,9.4625 12.6067,13.2122 1.9482,10.3849 -9.4578,16.8621 -19.8679,11.2827 -2.7208,-1.4583 -5.6421,-2 -10.7849,-2 -4.5426,0 -8.1671,-0.576 -10.1824,-1.6182 -6.5233,-3.3733 -23.2518,-0.3277 -27.7109,5.0451 -0.718,0.8652 -2.7911,1.5731 -4.6068,1.5731 -7.3735,0 -24.5005,4.4032 -30.5905,7.8646 -5.4728,3.1106 -11.2131,8.0519 -12.8013,11.0194 -1.4186,2.6507 -9.062,3.1437 -9.062,0.5846 z m 116.3751,-27.7537 c 1.6619,-1.2152 1.6471,-1.3848 -0.2716,-3.1213 -2.3592,-2.135 -5.1035,-1.4853 -5.1035,1.2083 0,3.3618 2.2827,4.1742 5.3751,1.913 z m -112.7375,-33.3159 c 3.2007,-0.8588 8.7319,-12.76127 10.4091,-22.39901 1.4372,-8.25842 4.5323,-18.35968 5.7499,-18.76554 0.6898,-0.22995 1.2034,0.5192 1.2034,1.75553 0,3.35333 3.3682,2.10323 4.0474,-1.5022 1.0371,-5.50484 -5.2115,-16.79239 -8.9447,-16.15788 -0.8815,0.14982 -3.2703,1.07871 -5.3085,2.06421 -5.7098,2.76074 -7.6285,7.80799 -9.2233,24.26165 -0.738,7.61433 -2.0618,15.86923 -2.9418,18.34427 -1.9079,5.3658 -2.0818,10.14727 -0.4291,11.79997 1.3346,1.3346 2.3001,1.4409 5.4376,0.5991 z m -1.7334,-8.01437 c -1.1598,-1.3975 -1.0864,-1.5661 0.5447,-1.25 1.0369,0.201 2.0726,0.9279 2.3015,1.6154 0.594,1.7839 -1.26,1.5459 -2.8462,-0.3654 z m 4.2793,-16.13464 c 0.1741,-1.5125 0.7665,-2.75 1.3165,-2.75 0.55,0 1.1424,1.2375 1.3164,2.75 0.2308,2.00641 -0.1251,2.75 -1.3164,2.75 -1.1914,0 -1.5473,-0.74359 -1.3165,-2.75 z m 53.636,19.98974 c 0.4062,-2.8469 1.5268,-2.8435 3.4631,0.01 1.9394,2.85827 2.8491,1.94237 5.6507,-5.6893 1.1991,-3.2666 4.7058,-11.13325 7.7925,-17.48143 3.4184,-7.03037 5.782,-13.30868 6.0465,-16.06132 0.3933,-4.09311 0.094,-4.87935 -3.1691,-8.33974 -4.4981,-4.76941 -4.5379,-5.77782 -0.1751,-4.43883 2.2927,0.70365 3.6239,1.8319 4.0191,3.4064 0.3657,1.45721 1.3278,2.35426 2.525,2.35426 3.886,0 8.3883,-15.40337 6.1787,-21.13843 -0.9337,-2.42321 -0.7839,-2.68497 1.8358,-3.20892 1.5688,-0.31376 3.088,-1.37647 3.3759,-2.36156 1.4192,-4.85595 0.6695,-13.29748 -1.18,-13.28735 -1.7714,0.01 -7.2529,4.19572 -8.7717,6.69852 -0.9337,1.53876 -2.5114,3.98756 -3.5059,5.44178 -0.9945,1.45423 -1.9618,3.7908 -2.1495,5.19238 -0.1877,1.40159 -1.0232,3.36177 -1.8566,4.35596 -0.8334,0.99419 -4.0273,5.63262 -7.0974,10.30762 -7.4688,11.37279 -20.4262,24 -24.6277,24 -4.3734,0 -4.7858,-1.62594 -1.25,-4.92889 2.4554,-2.29365 3.0762,-3.69073 3.0762,-6.9231 0,-2.22726 0.4984,-6.37386 1.1077,-9.21467 1.3878,-6.47106 0.1378,-9.93332 -3.5863,-9.93332 -1.8974,0 -2.5214,-0.52142 -2.5214,-2.10699 0,-1.39715 0.4726,-1.92563 1.4028,-1.56868 0.7715,0.29607 2.234,-0.0695 3.25,-0.81239 2.7228,-1.99099 3.2096,-16.70923 0.8143,-24.62053 -1.6446,-5.43156 -1.914,-5.75204 -4.4153,-5.25178 -1.7574,0.35147 -3.1238,-0.0214 -4.0155,-1.09581 -1.6833,-2.02832 -0.5137,-3.28341 3.4637,-3.71687 l 3,-0.32695 -0.3042,-10.5 c -0.4361,-15.05113 -4.3369,-22.10987 -8.4089,-15.21645 -1.2097,2.04778 -1.7238,5.47493 -1.8421,12.27855 -0.09,5.19085 -0.781,14.1629 -1.535,19.9379 -0.7539,5.775 -1.3874,15.45 -1.4076,21.5 -0.02,6.05 -0.4848,15.25322 -1.0323,20.45159 -0.8227,7.81262 -0.7485,9.69842 0.4281,10.875 1.2312,1.2312 0.9076,1.9141 -2.3968,5.05747 -4.295,4.08571 -6.3637,10.61002 -3.8831,12.24664 1.2953,0.85456 6.2352,0.43841 9.4529,-0.79632 0.9508,-0.36486 1.429,0.13416 1.429,1.49124 0,1.2605 -0.8595,2.28195 -2.25,2.67404 -5.5828,1.57419 -7.75,2.84775 -7.75,4.55427 0,1.88697 -3.2659,3.51782 -4.9546,2.47414 -1.802,-1.11366 -5.0454,3.32497 -5.0454,6.90457 0,4.0866 1.8605,5.005 8.2369,4.0661 3.8234,-0.563 7.2607,0.038 17.3862,3.0389 1.7222,0.5104 2.3253,0.049 3.1944,-2.4441 0.756,-2.1687 1.5293,-2.8977 2.6269,-2.4765 0.8556,0.3283 1.5556,0.9381 1.5556,1.3551 0,0.417 0.9509,1.967 2.1131,3.4445 2.4585,3.12557 5.2476,3.03907 5.7064,-0.1769 z m -2.3596,-5.3046 c -0.8476,-1.3714 0.3674,-7.93514 1.4688,-7.93514 0.461,0 1.0617,1.16979 1.335,2.59953 0.8842,4.62521 -1.0124,8.23421 -2.8038,5.33561 z m 26.1795,-58.62899 c -1.1261,-1.12619 -0.6858,-2.30615 0.8606,-2.30615 0.825,0 1.5,0.42344 1.5,0.94098 0,1.26098 -1.5616,2.1641 -2.3606,1.36517 z m -91.6746,60.75959 c 1.6737,-3.1274 1.2202,-4.0657 -1.9648,-4.0657 -2.4762,0 -3,0.4074 -3,2.3333 0,4.0486 3.139,5.1439 4.9648,1.7324 z m 0.5191,-7.06574 c 1.7036,0 2.6122,-0.83714 3.4182,-3.14922 2.2682,-6.50637 0.9934,-12.78176 -3.2004,-15.75522 -1.8963,-1.34453 -1.8362,-1.45117 1.4087,-2.5 2.9011,-0.93768 3.6461,-1.86906 5.1697,-6.46306 1.8212,-5.49146 1.5579,-9.1325 -0.6604,-9.1325 -2.0821,0 -6.3035,5.25935 -7.6251,9.5 -0.6856,2.2 -2.0457,5.8 -3.0223,8 -2.1425,4.82625 -3.2356,17.83676 -1.6331,19.43919 0.6074,0.60745 1.7164,0.86965 2.4644,0.58265 0.748,-0.287 2.4041,-0.52184 3.6803,-0.52184 z m -388.813283,40.14401 -7.82935,-2.6993 7.32935,-2.3552 c 4.03114,-1.2954 7.89185,-2.5686 8.57935,-2.8294 0.75451,-0.2862 1.25,0.3611 1.25,1.6329 0,2.0933 0.18427,2.107 28.499993,2.107 24.66667,0 28.5,0.2017 28.5,1.5 0,1.2982 -3.83333,1.5 -28.5,1.5 -27.833333,0 -28.499993,0.047 -28.499993,2 0,2.4344 0.2924,2.4612 -9.32935,-0.856 z m 587.329383,0.963 c 0,-2.0934 -0.1843,-2.107 -28.5,-2.107 -24.6667,0 -28.5,-0.2018 -28.5,-1.5 0,-1.2983 3.8333,-1.5 28.5,-1.5 28.143,0 28.5,-0.026 28.5,-2.0674 0,-2.2809 -0.6457,-2.3683 10.6523,1.4428 l 6.4837,2.1871 -7.318,2.3516 c -4.0249,1.2934 -7.8805,2.5649 -8.568,2.8257 -0.7545,0.2862 -1.25,-0.3611 -1.25,-1.6328 z M 93.007217,484.57653 c 0.0182,-8.38628 2.01496,-28.41213 4.01326,-40.25 4.028683,-23.86579 10.628073,-43.82708 19.434473,-58.7838 2.94314,-4.99861 3.14623,-5.78507 1.75637,-6.80136 -1.34608,-0.98428 -0.59312,-2.06505 5.24743,-7.53201 3.75047,-3.51056 7.65387,-6.96948 8.67424,-7.68649 1.69599,-1.19177 1.77519,-1.10595 0.92279,1 -3.8999,9.63518 -8.22996,18.26212 -9.06156,18.05366 -0.54853,-0.1375 -1.52496,-0.3625 -2.16985,-0.5 -1.72568,-0.36794 -11.25107,18.30698 -14.82307,29.06122 -6.22591,18.74438 -10.179493,41.23982 -11.588763,65.93878 -0.38443,6.7375 -1.08521,12.25004 -1.5573,12.25004 -0.47208,0 -0.85369,-2.13754 -0.84802,-4.75004 z m 545.574023,-7.5 c -1.4092,-24.69896 -5.3628,-47.1944 -11.5887,-65.93878 -3.3044,-9.94838 -13.0413,-29.42128 -14.5731,-29.14455 -0.5074,0.0917 -1.4838,0.31666 -2.1699,0.5 -1.0592,0.28307 -5.0074,-7.33655 -9.3115,-17.97033 -0.8524,-2.10595 -0.7732,-2.19177 0.9228,-1 1.0203,0.71701 4.9237,4.17593 8.6742,7.68649 5.8406,5.46696 6.5935,6.54773 5.2474,7.53201 -1.3898,1.01629 -1.1867,1.80275 1.7564,6.80136 11.5914,19.68679 19.5353,48.85906 22.4066,82.2838 1.2629,14.70102 1.3239,21.50004 0.1931,21.50004 -0.4721,0 -1.1728,-5.51254 -1.5573,-12.25004 z m -475.44617,-77.5 c -1.06368,-1.99683 -22.0846,-50.01269 -24.1164,-55.08653 -1.08946,-2.72063 -1.77135,-3.25333 -3.69396,-2.8858 -1.78672,0.34155 -2.46988,-0.0614 -2.82028,-1.66347 -0.87258,-3.98962 -2.53057,-17.92449 -2.17499,-18.28008 0.19557,-0.19556 2.56325,2.43375 5.26152,5.84291 8.17103,10.32381 7.96663,9.93981 6.04044,11.34828 -1.5329,1.12088 -0.9973,2.79525 5.95088,18.60322 10.90144,24.80213 18.41462,42.42936 18.41462,43.20389 0,1.35387 -1.95868,0.61304 -2.86183,-1.08242 z m 400.86187,1.16575 c 0,-0.85054 7.1601,-17.68177 18.4146,-43.28722 6.9482,-15.80797 7.4838,-17.48234 5.9509,-18.60322 -1.9262,-1.40847 -2.1306,-1.02447 6.0404,-11.34828 2.6983,-3.40916 5.066,-6.03847 5.2615,-5.84291 0.3556,0.35559 -1.3024,14.29046 -2.175,18.28008 -0.346,1.5821 -1.0393,2.00391 -2.7548,1.67598 -2.0926,-0.40003 -2.8039,0.75443 -8.1626,13.24835 -12.9185,30.11993 -20.1722,45.82718 -21.3435,46.21763 -0.6773,0.22578 -1.2315,0.0726 -1.2315,-0.34041 z M 222.9969,322.32653 c 0,-33.70275 -0.0181,-34 -2.06739,-34 -2.28085,0 -2.36831,0.64568 1.4428,-10.65229 l 2.18712,-6.48371 2.35159,7.318 c 1.29338,4.0249 2.56495,7.8805 2.82573,8.568 0.28619,0.75451 -0.36107,1.25 -1.63286,1.25 -2.10134,0 -2.10699,0.0912 -2.10699,34 0,29.55556 -0.19608,34 -1.5,34 -1.30392,0 -1.5,-4.44444 -1.5,-34 z m 281.00004,0 c 0,-33.70275 -0.018,-34 -2.0674,-34 -2.2809,0 -2.3683,0.64568 1.4428,-10.65229 l 2.1871,-6.48371 2.3516,7.318 c 1.2934,4.0249 2.5649,7.8805 2.8257,8.568 0.2862,0.75451 -0.3611,1.25 -1.6328,1.25 -2.1014,0 -2.107,0.0912 -2.107,34 0,29.55556 -0.1961,34 -1.5,34 -1.304,0 -1.5,-4.44444 -1.5,-34 z"
       style="fill:#333333;fill-opacity:1"
       sodipodi:nodetypes="cssscscsccssssssscsssssssssssscscsssssccscscsssccscssssccscssccssssssssccssccscsssssscsccsssscssssssssscsccsssssssscsssssssssssssssscssssssssssssssssscsssssssssscsssssssssssssscssssssscscscsssssscsccssccssssscsscccscsccsssscscsscssscscsssssssssssssssssssssssssssssccscscsssssscssccsssssssccccsscscssscssssssssssscssssssssssssssscscsssssssssssssssssssscccsssssssssssssssssssscssssscsssssssssssscscssssssssssssssssccsssssssssssscssssssssscsssssssscssssssssscsssssss" />
    <g
       style="font-size:30.68992805px;font-style:normal;font-variant:normal;font-weight:normal;font-stretch:normal;line-height:125%;letter-spacing:0px;word-spacing:0px;fill:#000000;fill-opacity:1;stroke:none;font-family:Open Sans;-inkscape-font-specification:Open Sans"
       id="text3122">
      <path
         d="m 203.80552,276.72139 c 0.0799,0.23978 0.25475,0.35966 0.52449,0.35965 l 6.24887,0 c 0.21978,1e-5 0.45205,-0.007 0.69682,-0.0225 0.24475,-0.015 0.44955,-0.03 0.6144,-0.045 0.16483,-0.015 0.25224,-0.0225 0.26224,-0.0225 0.30969,10e-6 0.56943,0.045 0.77924,0.13486 0.20978,0.0899 0.31468,0.20981 0.31469,0.35965 -1e-5,0.12989 -0.19982,0.49952 -0.59941,1.10892 l -6.84829,10.51969 3.55152,0 c 1.27874,0 2.20283,-1.08394 2.77228,-3.25182 l 1.28874,0.26974 c -0.40961,1.45857 -0.67935,2.88218 -0.80921,4.27081 l -9.14104,0 c -1.11891,0 -1.67836,-0.16483 -1.67836,-0.49451 0,-0.0799 0.10989,-0.3047 0.32968,-0.67434 l 7.05808,-10.86435 -3.55152,0 c -0.48952,1e-5 -0.9141,0.22229 -1.27375,0.66684 -0.35965,0.44458 -0.66435,1.20633 -0.9141,2.28526 l -1.31871,-0.17982 c 0.38962,-1.58843 0.6144,-3.06199 0.67434,-4.42067 z"
         style="font-weight:bold;font-family:Linux Libertine;-inkscape-font-specification:Linux Libertine Bold"
         id="path3162"
         inkscape:connector-curvature="0" />
    </g>
    <g
       style="font-size:30.68992805px;font-style:normal;font-variant:normal;font-weight:normal;font-stretch:normal;line-height:125%;letter-spacing:0px;word-spacing:0px;fill:#000000;fill-opacity:1;stroke:none;font-family:Open Sans;-inkscape-font-specification:Open Sans"
       id="text3126">
      <path
         d="m 159.50721,325.40008 -5.095,12.63262 c -0.29972,0.72929 -0.58943,1.35617 -0.86915,1.88066 -0.27974,0.52448 -0.61441,1.03898 -1.00402,1.54349 -0.38962,0.5045 -0.83169,0.88662 -1.3262,1.14638 -0.49452,0.25973 -1.03649,0.38961 -1.62591,0.38961 -0.18981,0 -0.4046,-0.03 -0.64436,-0.0899 -0.23977,-0.06 -0.49202,-0.14986 -0.75676,-0.26973 -0.26475,-0.11989 -0.48453,-0.29472 -0.65936,-0.52449 -0.17483,-0.22978 -0.26224,-0.49452 -0.26224,-0.79422 0,-0.48953 0.17982,-0.87415 0.53947,-1.15387 0.35965,-0.27973 0.77924,-0.41959 1.25877,-0.41959 0.22977,0 0.47453,0.0774 0.73428,0.23227 0.25974,0.15485 0.44456,0.31719 0.55446,0.48702 0.22977,0.34966 0.42457,0.52449 0.58442,0.52449 0.0899,0 0.21978,-0.0999 0.38962,-0.29971 0.16983,-0.1998 0.39711,-0.55945 0.68183,-1.07894 0.28472,-0.51949 0.56195,-1.14388 0.83169,-1.87316 l 0.55445,-1.49853 -4.33075,-10.68453 c -0.31969,-0.79921 -0.6194,-1.33618 -0.89912,-1.61093 -0.27973,-0.27472 -0.7143,-0.41208 -1.30372,-0.41209 -0.2098,1e-5 -0.3147,-0.0749 -0.31469,-0.22478 l 0,-0.76425 0.10489,-0.0599 c 1.31871,0.04 2.40265,0.0599 3.25182,0.0599 l 3.71635,-0.0599 0.11989,0.0599 0,0.73428 c -10e-6,0.0899 -0.03,0.15486 -0.0899,0.19481 -0.06,0.04 -0.1149,0.06 -0.16484,0.0599 -0.59942,1e-5 -0.98405,0.1124 -1.15387,0.33717 -0.16984,0.22479 -0.15985,0.57195 0.03,1.04148 l 2.84721,7.73242 c 1.17883,-2.85719 2.11791,-5.41469 2.81724,-7.67248 0.31967,-0.95905 -0.0849,-1.43858 -1.21381,-1.43859 -0.0699,1e-5 -0.12989,-0.025 -0.17983,-0.0749 -0.05,-0.0499 -0.0749,-0.0999 -0.0749,-0.14985 l 0,-0.73428 0.11988,-0.0899 c 1.40861,0.04 2.55748,0.0599 3.44662,0.0599 l 1.96308,-0.0599 0.0599,0.0599 0,0.70431 c -2e-5,0.0699 -0.035,0.13488 -0.1049,0.19481 -0.0699,0.06 -0.14987,0.0899 -0.23976,0.0899 -0.45957,10e-6 -0.89414,0.15736 -1.30373,0.47203 -0.40961,0.31471 -0.73928,0.78175 -0.98903,1.40113 z"
         style="font-weight:bold;font-family:Linux Libertine;-inkscape-font-specification:Linux Libertine Bold"
         id="path3159"
         inkscape:connector-curvature="0" />
    </g>
    <g
       style="font-size:30.68992805px;font-style:normal;font-variant:normal;font-weight:normal;font-stretch:normal;line-height:125%;letter-spacing:0px;word-spacing:0px;fill:#000000;fill-opacity:1;stroke:none;font-family:Open Sans;-inkscape-font-specification:Open Sans"
       id="text3130">
      <path
         d="m 77.113451,513.92444 c -0.169839,0.23977 -0.272238,0.44207 -0.307199,0.60691 -0.03497,0.16484 -0.0025,0.28972 0.0974,0.37463 0.0999,0.0849 0.199798,0.14486 0.299706,0.17983 0.0999,0.035 0.244754,0.0674 0.434574,0.0974 0.159837,0.03 0.239759,0.11489 0.239765,0.25475 l 0,0.73428 -0.119882,0.0599 c -1.358674,-0.04 -2.472581,-0.0599 -3.341726,-0.0599 l -2.39765,0.0599 -0.05994,-0.0599 0,-0.67434 c 0,-0.16983 0.109892,-0.27473 0.329677,-0.31469 1.168853,-0.15984 2.092947,-0.63937 2.772284,-1.43859 l 2.817239,-3.49158 c 0.109886,-0.12987 0.169827,-0.22227 0.179824,-0.27723 0.01,-0.0549 -0.01999,-0.11738 -0.08991,-0.18731 l -2.727327,-3.89619 c -0.949073,-1.36864 -1.883157,-2.05297 -2.802255,-2.05298 -0.199805,10e-6 -0.299707,-0.0749 -0.299706,-0.22478 l 0,-0.76426 0.08991,-0.0599 c 1.258765,0.04 2.29275,0.06 3.101961,0.0599 l 3.836241,-0.0599 0.08991,0.0599 0,0.73429 c -7e-6,0.13987 -0.07993,0.22479 -0.239765,0.25475 -0.609409,0.0599 -0.956569,0.16235 -1.041479,0.30719 -0.08492,0.14487 0.03746,0.47205 0.36714,0.98154 l 1.468561,2.1429 c 0.109884,0.15986 0.194801,0.24227 0.254751,0.24726 0.05993,0.005 0.129864,-0.0474 0.209794,-0.15734 l 1.528502,-2.20285 c 0.329667,-0.43955 0.459539,-0.75924 0.389618,-0.95906 -0.06994,-0.19979 -0.374643,-0.31967 -0.914104,-0.35964 -0.139872,-0.01 -0.209804,-0.0849 -0.209794,-0.22478 l 0,-0.73428 0.08991,-0.0899 c 1.468549,0.04 2.667374,0.06 3.596476,0.0599 l 2.082959,-0.0599 0.05994,0.0599 0,0.70431 c -1.6e-5,0.16985 -0.109908,0.26476 -0.329677,0.28473 -1.168869,0.12988 -2.092962,0.62939 -2.772284,1.49853 l -2.727327,3.31175 c -0.08992,0.11989 -0.06994,0.27474 0.05994,0.46455 l 2.697357,4.01606 c 0.479517,0.70931 0.926579,1.20632 1.341186,1.49104 0.414579,0.28472 0.921582,0.47204 1.521009,0.56195 0.199789,0.02 0.299691,0.0949 0.299707,0.22478 l 0,0.76425 -0.08991,0.0599 c -1.258781,-0.04 -2.292767,-0.0599 -3.101961,-0.0599 l -3.746329,0.0599 -0.119882,-0.0599 0,-0.73428 c -9e-6,-0.12987 0.08491,-0.21479 0.25475,-0.25475 0.389609,-0.0599 0.656847,-0.12238 0.801714,-0.18732 0.144849,-0.0649 0.21478,-0.17482 0.209795,-0.32967 -0.005,-0.15485 -0.107404,-0.38712 -0.307199,-0.69682 l -1.288737,-1.97806 c -0.179832,-0.30969 -0.312202,-0.49701 -0.397111,-0.56195 -0.08492,-0.0649 -0.177334,-0.0574 -0.277229,0.0225 -0.09991,0.0799 -0.274737,0.29471 -0.524486,0.64437 z"
         style="font-weight:bold;font-family:Linux Libertine;-inkscape-font-specification:Linux Libertine Bold"
         id="path3156"
         inkscape:connector-curvature="0" />
    </g>
    <g
       style="font-size:30.68992805px;font-style:normal;font-variant:normal;font-weight:normal;font-stretch:normal;line-height:125%;letter-spacing:0px;word-spacing:0px;fill:#000000;fill-opacity:1;stroke:none;font-family:Open Sans;-inkscape-font-specification:Open Sans"
       id="text3134">
      <path
         d="m 481.59747,276.72139 c 0.0799,0.23978 0.25474,0.35966 0.52448,0.35965 l 6.24888,0 c 0.21977,1e-5 0.45205,-0.007 0.69682,-0.0225 0.24475,-0.015 0.44955,-0.03 0.6144,-0.045 0.16482,-0.015 0.25224,-0.0225 0.26224,-0.0225 0.30968,10e-6 0.56943,0.045 0.77924,0.13486 0.20978,0.0899 0.31467,0.20981 0.31469,0.35965 -2e-5,0.12989 -0.19982,0.49952 -0.59942,1.10892 l -6.84829,10.51969 3.55152,0 c 1.27874,0 2.20284,-1.08394 2.77229,-3.25182 l 1.28874,0.26974 c -0.40962,1.45857 -0.67935,2.88218 -0.80921,4.27081 l -9.14104,0 c -1.11891,0 -1.67836,-0.16483 -1.67836,-0.49451 0,-0.0799 0.10989,-0.3047 0.32968,-0.67434 l 7.05808,-10.86435 -3.55152,0 c -0.48952,1e-5 -0.91411,0.22229 -1.27375,0.66684 -0.35965,0.44458 -0.66435,1.20633 -0.91411,2.28526 l -1.3187,-0.17982 c 0.38961,-1.58843 0.61439,-3.06199 0.67434,-4.42067 z"
         style="font-weight:bold;font-family:Linux Libertine;-inkscape-font-specification:Linux Libertine Bold"
         id="path3153"
         inkscape:connector-curvature="0" />
    </g>
    <g
       style="font-size:30.68992805px;font-style:normal;font-variant:normal;font-weight:normal;font-stretch:normal;line-height:125%;letter-spacing:0px;word-spacing:0px;fill:#000000;fill-opacity:1;stroke:none;font-family:Open Sans;-inkscape-font-specification:Open Sans"
       id="text3138">
      <path
         d="m 582.76115,325.40008 -5.09501,12.63262 c -0.29971,0.72929 -0.58943,1.35617 -0.86915,1.88066 -0.27973,0.52448 -0.6144,1.03898 -1.00401,1.54349 -0.38963,0.5045 -0.83169,0.88662 -1.3262,1.14638 -0.49452,0.25973 -1.03649,0.38961 -1.62591,0.38961 -0.18982,0 -0.40461,-0.03 -0.64437,-0.0899 -0.23977,-0.06 -0.49202,-0.14986 -0.75676,-0.26973 -0.26474,-0.11989 -0.48452,-0.29472 -0.65935,-0.52449 -0.17483,-0.22978 -0.26224,-0.49452 -0.26224,-0.79422 0,-0.48953 0.17982,-0.87415 0.53947,-1.15387 0.35964,-0.27973 0.77923,-0.41959 1.25876,-0.41959 0.22978,0 0.47454,0.0774 0.73429,0.23227 0.25974,0.15485 0.44456,0.31719 0.55445,0.48702 0.22977,0.34966 0.42458,0.52449 0.58443,0.52449 0.0899,0 0.21978,-0.0999 0.38962,-0.29971 0.16983,-0.1998 0.3971,-0.55945 0.68183,-1.07894 0.28471,-0.51949 0.56194,-1.14388 0.83168,-1.87316 l 0.55446,-1.49853 -4.33076,-10.68453 c -0.31968,-0.79921 -0.61939,-1.33618 -0.89911,-1.61093 -0.27973,-0.27472 -0.71431,-0.41208 -1.30373,-0.41209 -0.20979,1e-5 -0.31469,-0.0749 -0.31469,-0.22478 l 0,-0.76425 0.1049,-0.0599 c 1.31871,0.04 2.40264,0.0599 3.25181,0.0599 l 3.71636,-0.0599 0.11988,0.0599 0,0.73428 c 0,0.0899 -0.03,0.15486 -0.0899,0.19481 -0.0599,0.04 -0.11489,0.06 -0.16484,0.0599 -0.59942,1e-5 -0.98404,0.1124 -1.15387,0.33717 -0.16984,0.22479 -0.15985,0.57195 0.03,1.04148 l 2.84721,7.73242 c 1.17884,-2.85719 2.11792,-5.41469 2.81724,-7.67248 0.31968,-0.95905 -0.0849,-1.43858 -1.21381,-1.43859 -0.0699,1e-5 -0.12988,-0.025 -0.17982,-0.0749 -0.05,-0.0499 -0.0749,-0.0999 -0.0749,-0.14985 l 0,-0.73428 0.11989,-0.0899 c 1.4086,0.04 2.55748,0.0599 3.44662,0.0599 l 1.96307,-0.0599 0.0599,0.0599 0,0.70431 c -2e-5,0.0699 -0.035,0.13488 -0.1049,0.19481 -0.07,0.06 -0.14987,0.0899 -0.23977,0.0899 -0.45956,10e-6 -0.89413,0.15736 -1.30372,0.47203 -0.40961,0.31471 -0.73929,0.78175 -0.98903,1.40113 z"
         style="font-weight:bold;font-family:Linux Libertine;-inkscape-font-specification:Linux Libertine Bold"
         id="path3150"
         inkscape:connector-curvature="0" />
    </g>
    <g
       style="font-size:30.68992805px;font-style:normal;font-variant:normal;font-weight:normal;font-stretch:normal;line-height:125%;letter-spacing:0px;word-spacing:0px;fill:#000000;fill-opacity:1;stroke:none;font-family:Open Sans;-inkscape-font-specification:Open Sans"
       id="text3142">
      <path
         d="m 650.88011,513.92444 c -0.16984,0.23977 -0.27223,0.44207 -0.3072,0.60691 -0.035,0.16484 -0.002,0.28972 0.0974,0.37463 0.0999,0.0849 0.1998,0.14486 0.29971,0.17983 0.0999,0.035 0.24475,0.0674 0.43457,0.0974 0.15984,0.03 0.23976,0.11489 0.23976,0.25475 l 0,0.73428 -0.11988,0.0599 c -1.35867,-0.04 -2.47258,-0.0599 -3.34172,-0.0599 l -2.39765,0.0599 -0.06,-0.0599 0,-0.67434 c 0,-0.16983 0.1099,-0.27473 0.32968,-0.31469 1.16885,-0.15984 2.09295,-0.63937 2.77229,-1.43859 l 2.81723,-3.49158 c 0.10989,-0.12987 0.16983,-0.22227 0.17983,-0.27723 0.01,-0.0549 -0.02,-0.11738 -0.0899,-0.18731 l -2.72733,-3.89619 c -0.94907,-1.36864 -1.88316,-2.05297 -2.80225,-2.05298 -0.19981,10e-6 -0.29971,-0.0749 -0.29971,-0.22478 l 0,-0.76426 0.0899,-0.0599 c 1.25877,0.04 2.29275,0.06 3.10196,0.0599 l 3.83624,-0.0599 0.0899,0.0599 0,0.73429 c 0,0.13987 -0.0799,0.22479 -0.23976,0.25475 -0.60941,0.0599 -0.95657,0.16235 -1.04148,0.30719 -0.0849,0.14487 0.0375,0.47205 0.36714,0.98154 l 1.46856,2.1429 c 0.10988,0.15986 0.1948,0.24227 0.25475,0.24726 0.0599,0.005 0.12987,-0.0474 0.2098,-0.15734 l 1.5285,-2.20285 c 0.32966,-0.43955 0.45954,-0.75924 0.38962,-0.95906 -0.07,-0.19979 -0.37465,-0.31967 -0.91411,-0.35964 -0.13987,-0.01 -0.2098,-0.0849 -0.20979,-0.22478 l 0,-0.73428 0.0899,-0.0899 c 1.46855,0.04 2.66737,0.06 3.59648,0.0599 l 2.08295,-0.0599 0.0599,0.0599 0,0.70431 c -2e-5,0.16985 -0.10991,0.26476 -0.32968,0.28473 -1.16887,0.12988 -2.09296,0.62939 -2.77229,1.49853 l -2.72732,3.31175 c -0.0899,0.11989 -0.0699,0.27474 0.0599,0.46455 l 2.69736,4.01606 c 0.47951,0.70931 0.92657,1.20632 1.34118,1.49104 0.41458,0.28472 0.92158,0.47204 1.52101,0.56195 0.19979,0.02 0.29969,0.0949 0.29971,0.22478 l 0,0.76425 -0.0899,0.0599 c -1.25879,-0.04 -2.29277,-0.0599 -3.10197,-0.0599 l -3.74632,0.0599 -0.11989,-0.0599 0,-0.73428 c -10e-6,-0.12987 0.0849,-0.21479 0.25475,-0.25475 0.38961,-0.0599 0.65685,-0.12238 0.80172,-0.18732 0.14485,-0.0649 0.21478,-0.17482 0.20979,-0.32967 -0.005,-0.15485 -0.1074,-0.38712 -0.3072,-0.69682 l -1.28873,-1.97806 c -0.17984,-0.30969 -0.31221,-0.49701 -0.39711,-0.56195 -0.0849,-0.0649 -0.17734,-0.0574 -0.27723,0.0225 -0.0999,0.0799 -0.27474,0.29471 -0.52449,0.64437 z"
         style="font-weight:bold;font-family:Linux Libertine;-inkscape-font-specification:Linux Libertine Bold"
         id="path3147"
         inkscape:connector-curvature="0" />
    </g>
    <text
       xml:space="preserve"
       transform="translate(79.122048,681.53452)"
       id="text2"
       style="font-style:normal;font-variant:normal;font-weight:normal;font-stretch:normal;font-size:12px;font-family:Sans;-inkscape-font-specification:'Sans, Normal';font-variant-ligatures:normal;font-variant-caps:normal;font-variant-numeric:normal;font-variant-east-asian:normal;white-space:pre;shape-inside:url(#rect2);fill:#000000;stroke-width:11.9622"
       inkscape:label="Explanation2"><tspan
         x="325.4375"
         y="-92.124467"
         id="tspan1">Right-handed coordinate system
</tspan><tspan
         x="325.4375"
         y="-77.124467"
         id="tspan2">Mathematically positive sense of rotation = 
</tspan><tspan
         x="325.4375"
         y="-62.124467"
         id="tspan3">Geodetic negative direction of rotation
</tspan><tspan
         x="325.4375"
         y="-47.124467"
         id="tspan4">
</tspan></text>
    <text
       xml:space="preserve"
       transform="translate(-235.88274,681.73273)"
       id="text2-7"
       style="font-style:normal;font-variant:normal;font-weight:normal;font-stretch:normal;font-size:12px;font-family:Sans;-inkscape-font-specification:'Sans, Normal';font-variant-ligatures:normal;font-variant-caps:normal;font-variant-numeric:normal;font-variant-east-asian:normal;white-space:pre;shape-inside:url(#rect2-3);display:inline;fill:#000000;stroke-width:11.9622"
       inkscape:label="Explanation1"><tspan
         x="325.4375"
         y="-92.124467"
         id="tspan5">Left-handed coordinate system
</tspan><tspan
         x="325.4375"
         y="-77.124467"
         id="tspan6">Mathematically negative sense of rotation = 
</tspan><tspan
         x="325.4375"
         y="-62.124467"
         id="tspan7">Geodetic positive direction of rotation</tspan></text>
  </g>
</svg>
